<svg width="32" height="32" viewBox="0 0 32 32" fill="none" xmlns="http://www.w3.org/2000/svg">
<g clip-path="url(#clip0_9450_49595)">
<path d="M0 9.66C0 6.24306 0 4.53458 0.675519 3.23415C1.24477 2.13829 2.13829 1.24477 3.23415 0.675519C4.53458 0 6.24306 0 9.66 0H22.34C25.7569 0 27.4654 0 28.7658 0.675519C29.8617 1.24477 30.7552 2.13829 31.3245 3.23415C32 4.53458 32 6.24306 32 9.66V22.34C32 25.7569 32 27.4654 31.3245 28.7658C30.7552 29.8617 29.8617 30.7552 28.7658 31.3245C27.4654 32 25.7569 32 22.34 32H9.66C6.24306 32 4.53458 32 3.23415 31.3245C2.13829 30.7552 1.24477 29.8617 0.675519 28.7658C0 27.4654 0 25.7569 0 22.34V9.66Z" fill="white"/>
<path d="M14.7528 4.85027C17.2835 2.47292 21.2448 2.5348 23.7 4.99003L27.0101 8.30016C29.4654 10.7554 29.5272 14.7166 27.1499 17.2473L18.2815 26.6879C16.9011 28.1574 14.5787 28.1936 13.1531 26.768L5.23215 18.8471C3.80651 17.4214 3.84279 15.0991 5.31227 13.7187L14.7528 4.85027Z" fill="url(#paint0_linear_9450_49595)"/>
<rect x="17.7812" y="10.1816" width="5.71429" height="22.1429" rx="2.85714" transform="rotate(45 17.7812 10.1816)" fill="#E6A978" style="mix-blend-mode:color-burn"/>
<path d="M7.17188 20.7891L11.2125 24.8297L8.18203 27.8601C7.06624 28.9759 5.2572 28.9759 4.14142 27.8601V27.8601C3.02563 26.7443 3.02563 24.9353 4.14142 23.8195L7.17188 20.7891Z" fill="#ECB284"/>
</g>
<defs>
<linearGradient id="paint0_linear_9450_49595" x1="25.2047" y1="6.62179" x2="9.19408" y2="22.6325" gradientUnits="userSpaceOnUse">
<stop stop-color="#FFB800"/>
<stop offset="1" stop-color="#FF7F0A"/>
</linearGradient>
<clipPath id="clip0_9450_49595">
<path d="M0 9.66C0 6.24306 0 4.53458 0.675519 3.23415C1.24477 2.13829 2.13829 1.24477 3.23415 0.675519C4.53458 0 6.24306 0 9.66 0H22.34C25.7569 0 27.4654 0 28.7658 0.675519C29.8617 1.24477 30.7552 2.13829 31.3245 3.23415C32 4.53458 32 6.24306 32 9.66V22.34C32 25.7569 32 27.4654 31.3245 28.7658C30.7552 29.8617 29.8617 30.7552 28.7658 31.3245C27.4654 32 25.7569 32 22.34 32H9.66C6.24306 32 4.53458 32 3.23415 31.3245C2.13829 30.7552 1.24477 29.8617 0.675519 28.7658C0 27.4654 0 25.7569 0 22.34V9.66Z" fill="white"/>
</clipPath>
</defs>
</svg>
